<?xml version="1.0" standalone="no"?>
<!DOCTYPE svg PUBLIC "-//W3C//DTD SVG 20010904//EN"
 "http://www.w3.org/TR/2001/REC-SVG-20010904/DTD/svg10.dtd">
<svg version="1.0" xmlns="http://www.w3.org/2000/svg"
 width="1080.000000pt" height="1080.000000pt" viewBox="0 0 1080.000000 1080.000000"
 preserveAspectRatio="xMidYMid meet">
<metadata>
Created by potrace 1.14, written by Peter Selinger 2001-2017
</metadata>
<g transform="translate(0.000000,1080.000000) scale(0.100000,-0.100000)"
fill="#000000" stroke="none">
<path d="M5105 8532 c-185 -180 -467 -447 -482 -455 -8 -5 -75 -7 -149 -5 -74
1 -134 0 -134 -4 0 -4 24 -29 53 -55 147 -134 169 -159 165 -195 l-3 -33 -102
-3 -103 -3 0 -104 c0 -97 -2 -105 -27 -137 -40 -50 -136 -148 -145 -148 -4 0
-8 64 -9 143 0 78 -4 160 -8 182 -5 22 -9 35 -10 28 -2 -22 -30 -6 -103 59
l-74 66 -142 -138 c-78 -76 -142 -141 -142 -144 0 -3 60 -7 133 -8 l132 -3 3
-155 2 -155 -60 -60 c-33 -33 -60 -63 -60 -67 0 -4 78 -9 173 -9 146 -2 160
-3 92 -9 -102 -10 -118 -16 -109 -44 9 -29 14 -33 23 -17 6 9 10 5 13 -13 5
-25 -6 -47 -14 -27 -1 4 -13 12 -25 15 -17 6 -23 3 -23 -8 0 -10 6 -13 18 -10
14 5 15 4 2 -5 -18 -13 -43 -15 -36 -2 3 4 -6 6 -19 3 -29 -5 -40 -18 -25 -27
5 -3 10 -1 10 4 0 6 5 11 12 11 8 0 7 -6 -4 -16 -12 -12 -41 -17 -109 -20
-314 -13 -315 -13 -343 -45 -30 -34 -31 -36 -10 -41 12 -2 9 -10 -15 -33 -17
-16 -31 -40 -31 -52 0 -13 -4 -23 -10 -23 -6 0 -10 52 -10 136 0 114 -2 135
-15 132 -8 -2 -61 -48 -117 -103 -57 -56 -142 -138 -190 -183 l-87 -82 -118 0
-118 -1 -89 -84 c-50 -47 -87 -88 -83 -91 7 -7 5009 -13 5445 -7 129 2 232 8
232 13 0 5 -91 95 -202 200 -112 106 -223 216 -248 246 -69 83 -294 314 -305
314 -12 0 -83 -67 -306 -287 -91 -90 -166 -157 -166 -148 0 8 5 15 10 15 6 0
7 3 4 7 -4 3 -16 -2 -27 -12 -11 -10 -23 -15 -27 -12 -3 4 -1 7 5 7 7 0 12 5
12 10 0 7 -7 7 -21 -1 -13 -7 -19 -7 -15 -1 3 6 2 13 -4 17 -6 4 -10 76 -10
189 l0 182 145 144 c80 79 145 147 145 151 0 5 -66 10 -146 11 l-147 3 2 167
c2 111 -1 168 -9 173 -10 6 -41 -21 -230 -202 l-55 -52 2 67 c3 73 20 166 35
195 15 30 -10 11 -101 -71 l-81 -73 0 -133 0 -133 -215 -211 c-118 -117 -220
-212 -226 -212 -9 0 -10 33 -5 130 4 73 3 130 -1 130 -5 0 -53 -44 -106 -99
l-97 -98 0 -136 0 -135 -86 -81 -85 -81 -245 0 c-134 0 -244 2 -244 4 0 3 6
11 13 18 46 45 623 603 722 698 424 407 745 725 745 738 0 8 -59 73 -131 144
l-130 129 -171 -166 c-93 -91 -175 -165 -182 -165 -6 0 -40 -25 -75 -55 -58
-49 -66 -53 -81 -40 -9 8 -21 15 -27 15 -14 0 -27 -208 -20 -320 3 -47 2 -92
-1 -100 -4 -9 -101 -105 -217 -214 -115 -109 -220 -209 -232 -222 -28 -30 -50
-32 -29 -3 8 12 12 28 9 35 -3 8 -1 14 4 14 5 0 10 7 10 15 0 13 61 144 73
155 11 11 50 70 50 76 0 4 14 29 31 57 l31 51 -49 -41 c-69 -59 -487 -454
-491 -464 -5 -12 -32 -11 -32 1 0 6 -5 10 -11 10 -14 0 -48 41 -49 58 0 6 -4
12 -10 12 -31 0 13 51 222 252 384 368 648 631 648 643 0 14 -104 115 -118
115 -7 0 -232 -214 -551 -527 l-124 -121 -26 18 c-14 10 -52 34 -83 52 l-57
34 -120 -116 -121 -116 0 -102 0 -102 -31 0 c-17 0 -53 12 -80 27 -38 20 -54
38 -74 76 -14 28 -25 63 -25 77 0 35 46 106 101 154 36 32 511 488 869 833
l75 73 -125 120 c-69 65 -127 119 -130 120 -3 0 -50 -44 -105 -98z"/>
<path d="M3629 7293 c-82 -81 -146 -150 -141 -155 5 -5 76 -7 158 -6 l149 3 3
153 c2 104 -1 152 -8 152 -6 0 -78 -66 -161 -147z"/>
<path d="M2368 6317 l-107 -112 -1 -342 0 -343 82 0 83 0 -153 -153 c-83 -84
-152 -160 -152 -170 0 -9 -4 -17 -9 -17 -14 0 -23 -63 -10 -71 7 -4 4 -9 -10
-14 -21 -6 -21 -8 -6 -25 13 -15 14 -20 3 -27 -17 -10 -18 -24 -24 -218 l-6
-160 424 421 c450 448 433 434 529 434 l39 0 0 -180 c0 -100 -4 -180 -9 -180
-5 0 -39 27 -76 61 l-67 60 -46 -42 c-26 -23 -53 -49 -59 -58 -7 -9 -76 -79
-154 -157 l-141 -141 1 -117 2 -116 -98 -103 -98 -102 -3 138 c-2 132 -10 159
-32 118 -20 -39 -73 -61 -144 -61 l-66 0 0 -123 c0 -68 2 -126 5 -129 3 -3 42
6 86 19 45 12 95 23 111 23 30 0 31 -1 25 -42 -3 -22 -15 -54 -27 -70 -11 -16
-18 -34 -14 -41 4 -6 64 -69 133 -139 93 -94 131 -126 144 -122 19 6 137 -88
137 -110 0 -6 -30 -44 -66 -84 l-66 -73 258 -253 259 -254 2 -112 c2 -128 -4
-117 137 -250 l77 -73 61 59 c34 32 67 65 73 72 8 10 35 -12 122 -100 l112
-113 91 -5 c69 -4 91 -2 95 8 7 18 7 2956 0 2974 -4 11 -122 13 -659 10 l-653
-3 -6 128 c-4 71 -7 233 -7 361 0 127 -3 232 -7 231 -5 0 -56 -51 -115 -112z
m1252 -1870 l0 -379 -78 -76 c-339 -335 -444 -433 -461 -427 -10 3 -71 56
-136 118 l-118 113 209 195 c200 186 296 275 377 347 l37 32 0 224 c0 122 3
226 7 230 4 4 42 6 85 4 l78 -3 0 -378z m-760 348 c-6 -8 -9 -19 -5 -24 4 -7
-1 -8 -11 -4 -12 4 -15 3 -10 -5 4 -7 1 -12 -8 -12 -23 0 -20 11 12 37 32 26
39 29 22 8z m30 -65 c0 -18 -34 -50 -54 -50 -8 0 -16 6 -19 14 -6 16 -47 10
-47 -6 0 -5 5 -6 10 -3 6 3 10 1 10 -5 0 -6 -8 -14 -17 -17 -10 -4 -21 -11
-25 -17 -6 -8 -11 -6 -17 4 -6 8 -13 12 -16 9 -3 -4 3 -17 13 -29 20 -24 48
-20 38 6 -7 17 10 19 18 2 3 -7 4 -6 3 4 -2 16 1 18 23 18 20 0 10 -21 -18
-38 -17 -10 -27 -23 -24 -32 3 -8 1 -12 -3 -8 -9 8 -35 -14 -28 -24 2 -5 -3
-8 -12 -8 -11 0 -15 -5 -11 -15 3 -8 1 -15 -4 -15 -6 0 -10 9 -10 21 0 15 -5
19 -15 15 -11 -4 -15 1 -15 19 0 25 -14 33 -24 16 -4 -5 0 -11 6 -14 7 -3 3
-4 -10 -4 -19 1 -9 15 64 88 85 85 87 86 105 68 20 -20 29 -22 53 -13 11 4 14
14 10 33 -4 20 -3 23 5 11 6 -8 11 -22 11 -30z m-40 -75 c0 -8 -4 -15 -10 -15
-5 0 -7 7 -4 15 4 8 8 15 10 15 2 0 4 -7 4 -15z m-180 -135 c0 -5 -5 -10 -11
-10 -5 0 -7 5 -4 10 3 6 8 10 11 10 2 0 4 -4 4 -10z"/>
<path d="M3287 4002 c-140 -141 -168 -174 -129 -153 33 18 108 51 116 51 9 0
137 99 148 115 9 12 22 109 17 124 -2 6 -70 -55 -152 -137z"/>
<path d="M2785 4720 c-3 -5 -1 -10 4 -10 6 0 11 5 11 10 0 6 -2 10 -4 10 -3 0
-8 -4 -11 -10z"/>
<path d="M2680 4625 c-16 -20 -3 -37 23 -30 16 5 18 4 8 -3 -10 -7 -10 -11 -1
-17 20 -12 33 10 16 28 -9 9 -16 20 -16 26 0 16 -15 14 -30 -4z"/>
<path d="M8346 6422 c-3 -3 -6 -60 -6 -126 0 -67 -3 -226 -7 -353 l-6 -233
-691 -2 -691 -3 -3 -821 -2 -822 -128 -118 c-162 -152 -340 -322 -569 -549
l-183 -179 0 1241 c0 850 -3 1244 -10 1248 -6 4 -8 16 -4 27 6 20 5 19 -15 -1
-21 -21 -24 -21 -675 -21 -587 0 -654 -2 -660 -16 -3 -9 -6 -498 -7 -1087 l-1
-1072 -66 -59 c-37 -33 -228 -217 -426 -410 -197 -193 -364 -355 -372 -359
-11 -6 -14 -34 -14 -112 l0 -104 201 -201 c111 -110 204 -200 208 -200 3 0 45
39 93 87 l87 86 25 -30 c13 -16 47 -53 75 -83 49 -52 51 -53 76 -40 23 12 28
12 37 0 7 -12 9 -10 5 7 -3 13 0 26 5 30 7 3 8 1 4 -5 -4 -7 -2 -12 4 -12 6 0
9 -4 5 -9 -3 -5 -1 -12 5 -16 5 -3 10 -1 10 4 0 6 5 11 11 11 6 0 8 -9 3 -22
-6 -20 -4 -19 17 5 23 26 26 27 55 15 17 -7 29 -19 27 -25 -3 -9 4 -11 29 -6
18 3 35 10 36 15 2 4 8 8 13 8 6 0 8 -4 5 -9 -7 -11 24 -36 45 -36 9 0 23 6
31 13 9 7 23 10 31 6 15 -5 15 -8 0 -32 l-17 -27 23 23 c12 12 24 22 28 22 8
0 43 -42 43 -52 0 -5 4 -6 10 -3 6 4 5 17 -5 35 -13 25 -13 29 1 34 22 8 26 8
19 -4 -3 -5 8 -16 26 -25 17 -9 29 -13 26 -8 -3 4 6 16 20 27 l25 19 -17 -26
c-14 -21 -14 -27 -2 -34 8 -4 17 -15 21 -23 3 -8 4 -3 1 13 -3 15 -1 27 5 27
5 0 10 -5 10 -11 0 -6 6 -9 13 -6 50 20 48 21 38 -7 -7 -17 -7 -27 1 -32 6 -4
8 -3 5 3 -9 15 17 35 36 27 8 -3 18 -1 22 5 3 6 11 11 17 11 7 0 7 -4 -1 -13
-8 -10 -7 -19 4 -33 13 -18 14 -18 8 4 -4 16 -1 22 10 22 8 0 23 3 33 7 13 5
16 3 11 -9 -4 -12 0 -15 18 -13 14 1 31 8 40 15 18 15 20 -1 3 -18 -9 -9 -7
-12 9 -12 12 0 25 5 28 11 5 6 11 4 19 -7 11 -14 14 -15 18 -2 4 9 20 15 39
16 17 0 35 6 39 13 6 8 9 8 14 -2 5 -11 7 -11 12 -1 8 16 22 15 41 -3 8 -8 18
-13 23 -10 4 3 10 -2 14 -10 8 -23 28 -18 21 5 -5 16 -2 20 15 20 12 0 18 -4
15 -10 -3 -5 -1 -10 4 -10 6 0 11 5 11 10 0 6 7 10 15 10 8 0 12 -6 9 -13 -6
-16 54 -20 74 -4 8 6 12 6 12 -2 0 -6 10 -11 23 -10 12 0 16 3 10 6 -23 9 -14
20 12 15 20 -3 24 -9 21 -28 -3 -14 -1 -22 5 -19 5 4 9 13 9 20 0 11 10 14 40
11 22 -2 40 0 40 6 0 5 -4 6 -10 3 -5 -3 -10 -4 -10 -1 0 3 9 10 20 16 15 8
18 7 15 -3 -4 -8 4 -13 22 -14 16 -1 22 1 16 4 -25 10 -13 25 14 18 15 -3 32
-7 38 -8 5 -1 13 -6 17 -12 4 -5 8 6 8 25 0 26 3 31 12 22 15 -15 48 -16 48
-1 0 8 4 8 13 0 9 -7 24 -8 46 -1 27 7 32 7 27 -5 -4 -12 -2 -13 15 -2 16 10
17 13 4 15 -8 2 -15 11 -15 20 0 15 2 15 10 2 7 -11 12 -12 21 -3 6 6 18 9 25
6 8 -3 14 0 14 7 0 7 7 10 15 6 8 -3 21 1 29 10 13 13 16 12 25 -3 5 -10 13
-14 17 -10 5 5 2 12 -5 16 -8 5 -10 14 -6 21 6 9 9 9 16 -1 7 -12 9 -11 10 1
1 8 1 20 -1 25 -1 6 4 4 11 -2 7 -7 27 -13 43 -12 l31 1 -35 13 -35 12 37 8
c20 4 41 4 47 0 6 -3 11 -1 11 4 0 6 16 17 35 25 20 9 35 22 35 31 0 9 6 15
13 12 6 -2 11 -10 10 -16 -5 -21 15 -11 20 10 3 12 10 18 16 15 6 -4 17 7 26
24 8 16 20 30 25 30 16 0 11 -18 -7 -29 -10 -5 -14 -13 -9 -18 4 -4 15 2 23
14 9 13 23 23 32 24 10 0 11 2 4 6 -18 7 2 43 24 43 13 0 14 -2 2 -17 -12 -16
-12 -17 2 -6 9 7 20 9 24 5 5 -4 6 -2 2 3 -7 13 12 38 40 53 16 9 22 9 26 -1
3 -6 10 2 17 20 10 29 14 31 36 22 33 -12 37 -11 28 3 -5 8 -2 9 9 5 10 -3 17
-2 17 2 0 11 -24 21 -53 22 -20 1 -20 2 3 8 14 4 28 3 31 -1 3 -5 12 -2 19 7
7 8 19 15 26 15 8 0 14 5 14 10 0 6 -4 10 -8 10 -5 0 -9 7 -9 15 0 18 9 19 26
3 11 -11 12 -9 6 10 -4 13 -2 22 4 22 6 0 11 -7 11 -16 0 -13 3 -14 13 -5 8 6
17 8 20 4 4 -3 7 -1 7 6 0 7 -6 11 -14 8 -17 -7 -27 14 -16 33 6 10 10 9 17
-4 6 -11 16 -14 26 -10 9 3 15 9 13 13 -2 3 0 17 5 30 7 18 14 22 34 17 14 -4
25 -2 25 4 0 5 6 10 13 10 7 0 18 10 26 22 10 18 11 20 0 11 -7 -7 -18 -13
-23 -13 -6 1 -1 9 11 19 12 10 20 21 17 24 -3 3 4 8 15 12 11 3 35 23 52 43
17 20 28 30 24 22 -5 -8 -15 -23 -23 -33 -8 -9 -12 -20 -7 -25 4 -4 10 -1 12
6 3 6 9 10 14 6 5 -3 9 -1 9 4 0 5 7 9 15 9 8 0 15 -4 15 -9 0 -5 5 -6 11 -2
8 5 6 10 -6 16 -15 9 -15 11 4 25 13 9 30 12 44 8 17 -6 19 -4 11 5 -16 16 -6
54 11 40 9 -7 16 -6 25 5 8 10 9 15 2 15 -6 0 -9 7 -6 15 7 17 34 21 34 5 0
-5 5 -10 10 -10 21 0 9 19 -17 28 -18 7 -22 11 -10 11 9 1 17 6 17 13 0 6 10
3 23 -8 12 -10 16 -12 10 -4 -7 8 -13 18 -13 23 0 4 6 5 13 0 26 -16 37 -11
37 18 0 16 5 29 11 29 6 0 8 -7 5 -16 -5 -13 -4 -14 7 -6 8 7 16 9 20 6 3 -3
3 3 1 14 -3 10 2 26 10 35 9 8 16 20 16 26 0 6 5 11 12 11 6 0 3 7 -8 15 -23
17 -19 18 22 6 32 -9 32 -9 18 17 -13 26 -10 47 7 36 5 -3 7 -9 4 -14 -3 -4 4
-6 14 -3 11 3 21 13 24 23 3 13 0 17 -9 13 -8 -3 -11 -10 -7 -16 3 -6 1 -7 -5
-3 -7 4 -12 17 -12 29 0 16 3 18 9 8 7 -10 10 -10 16 -1 4 7 1 17 -6 22 -10 7
-7 8 12 5 23 -3 28 1 39 33 7 20 44 71 86 116 77 82 81 89 64 99 -6 4 -8 10
-5 15 8 13 -6 41 -18 33 -6 -4 -7 -1 -2 7 6 10 4 12 -8 7 -14 -5 -15 -3 -4 13
15 25 29 26 20 3 -6 -15 -4 -16 9 -5 12 10 14 20 8 42 -6 21 -5 27 4 24 14 -5
66 32 66 47 0 6 -5 7 -10 4 -6 -4 -5 5 2 19 6 14 15 26 20 26 12 0 10 22 -4
53 l-13 26 -35 -32 c-19 -17 12 16 69 75 58 59 109 104 114 101 6 -3 7 -1 3 5
-7 12 39 65 215 249 l98 102 -26 33 c-15 18 -49 57 -75 87 -45 50 -47 54 -31
67 17 13 17 13 1 14 -21 0 -24 30 -6 48 9 9 9 12 0 12 -7 0 -12 10 -12 23 0
13 -5 28 -11 34 -8 8 -6 11 7 10 12 -1 19 5 20 19 1 12 5 27 9 34 5 9 4 11 -3
6 -19 -12 -14 8 8 32 26 28 25 32 -7 26 l-28 -4 28 15 c15 9 27 21 27 27 0 6
7 20 17 30 10 11 12 18 4 18 -6 0 -14 -7 -17 -15 -7 -17 -30 -20 -39 -6 -3 5
0 13 6 17 8 4 9 3 5 -4 -4 -7 -2 -12 3 -12 6 0 11 17 11 38 0 27 3 33 10 22
13 -21 24 -5 11 18 -6 11 -7 22 -4 26 4 4 8 12 9 19 1 7 6 21 10 31 5 14 4 17
-4 12 -7 -4 -12 -3 -12 3 0 5 5 13 11 16 7 5 4 14 -8 28 -10 11 -12 17 -5 13
8 -5 12 2 12 25 0 19 9 42 20 54 39 41 33 76 -15 88 -11 2 21 5 72 6 l92 1 7
45 c3 26 4 184 1 353 -4 169 -6 384 -7 478 l0 172 -109 110 c-60 61 -112 108
-115 104z m84 -1318 c0 -8 -4 -14 -9 -14 -6 0 -9 9 -8 19 1 22 17 18 17 -5z
m-2897 -209 c65 -64 117 -120 117 -125 0 -4 -39 -44 -86 -87 -62 -56 -93 -77
-110 -76 -13 1 -24 -2 -24 -8 0 -10 -40 -12 -64 -3 -9 3 -13 11 -9 17 4 6 -3
8 -21 3 -15 -4 -26 -2 -26 4 0 16 -14 12 -38 -10 -12 -11 -26 -20 -32 -20 -6
0 -15 -10 -20 -22 -8 -22 -9 -21 -11 7 -1 17 0 77 1 135 l2 105 96 98 c53 53
99 97 103 97 3 0 58 -52 122 -115z m2844 -7 c-3 -8 -6 -5 -6 6 -1 11 2 17 5
13 3 -3 4 -12 1 -19z m-236 -144 c44 -26 68 -70 71 -130 3 -44 1 -49 -17 -47
-11 2 -60 5 -110 9 l-90 6 -50 -42 c-45 -38 -143 -130 -540 -509 -71 -68 -138
-133 -147 -144 -15 -16 -18 -39 -18 -142 0 -123 0 -124 -27 -145 -16 -12 -82
-74 -148 -138 -66 -65 -128 -123 -137 -130 -13 -11 -28 -5 -97 39 l-81 52 -72
-68 c-40 -38 -77 -75 -82 -84 -5 -9 -18 -23 -28 -31 -10 -8 -85 -78 -167 -155
l-150 -140 -1 -131 0 -132 -90 -82 -90 -82 0 131 c0 72 -4 131 -8 131 -5 0
-50 -42 -101 -94 l-92 -95 7 -94 c3 -52 3 -130 -1 -172 l-7 -78 -104 104 -104
104 0 76 0 76 128 119 c70 65 199 186 287 269 88 83 194 182 235 220 42 39
188 176 325 306 138 129 288 271 335 314 90 83 394 374 720 689 107 104 213
202 235 218 37 28 44 30 111 26 46 -3 84 -12 105 -24z m-2353 -572 c-40 -40
-104 -101 -141 -135 l-69 -61 -53 60 -54 59 -23 -21 c-13 -12 -35 -32 -50 -44
-32 -27 -33 -47 -21 -307 l6 -143 137 0 c75 0 140 -3 143 -7 6 -6 -435 -444
-454 -451 -5 -2 -9 204 -9 463 l0 468 36 39 c19 21 137 137 262 256 125 119
256 244 292 279 l65 62 3 -222 2 -221 -72 -74z m2532 267 c0 -6 -4 -7 -10 -4
-5 3 -10 11 -10 16 0 6 5 7 10 4 6 -3 10 -11 10 -16z m-40 3 c0 -4 -101 -108
-225 -232 -124 -123 -225 -219 -225 -214 0 6 11 21 24 33 22 21 23 25 10 49
-10 20 -10 29 -2 40 9 10 8 16 -3 23 -10 6 -11 9 -1 9 7 0 12 6 10 14 -3 15
109 161 169 218 58 56 88 68 171 68 39 0 72 -3 72 -8z m-515 -894 c-22 -3 -59
-7 -82 -7 l-43 -1 0 -112 0 -113 -93 -99 c-52 -55 -96 -96 -99 -90 -4 5 -6 58
-6 118 -1 59 -2 110 -5 112 -2 2 -60 -52 -128 -121 -68 -68 -122 -126 -119
-129 3 -2 -7 -15 -22 -28 -16 -13 -28 -31 -28 -41 0 -9 -11 -24 -25 -33 -27
-18 -34 -37 -10 -28 10 4 15 0 15 -12 0 -16 2 -17 10 -4 9 13 11 13 20 0 9
-13 13 -12 30 9 14 16 20 19 20 8 0 -10 7 -14 23 -11 12 2 4 -3 -18 -10 -49
-18 -165 -21 -165 -5 0 8 -5 7 -15 -1 -19 -16 -196 -26 -219 -13 -14 8 27 51
246 259 144 137 330 315 412 396 l150 147 96 -92 95 -92 -40 -7z m259 137 c-4
-8 -10 -15 -15 -15 -5 0 -9 7 -9 15 0 8 7 15 15 15 9 0 12 -6 9 -15z m-36 -74
c11 -7 11 -9 -1 -14 -9 -3 -18 1 -21 9 -6 16 2 18 22 5z m-3206 -263 c-20 -20
-15 -47 8 -41 14 4 20 0 20 -11 0 -9 -4 -16 -9 -16 -5 0 -11 -11 -13 -25 -5
-22 -3 -24 20 -18 27 6 25 -1 -7 -40 -15 -17 -152 -157 -155 -157 0 0 -99 -96
-218 -214 -229 -226 -272 -263 -283 -245 -4 5 -14 8 -22 5 -10 -4 -13 -2 -10
7 3 8 -2 13 -14 13 -10 -1 -18 3 -18 7 0 5 -9 17 -20 26 -20 18 -19 20 137
172 139 136 382 368 527 502 28 26 54 47 60 47 5 0 4 -5 -3 -12z m1808 -253
l0 -83 -61 -56 c-33 -31 -64 -56 -68 -56 -9 0 2 75 18 127 19 63 71 149 91
150 18 2 20 -5 20 -82z m685 -105 c-3 -5 -12 -10 -18 -10 -7 0 -6 4 3 10 19
12 23 12 15 0z m310 -30 c3 -5 1 -10 -4 -10 -6 0 -11 5 -11 10 0 6 2 10 4 10
3 0 8 -4 11 -10z m-555 -450 c0 -5 -5 -10 -11 -10 -5 0 -7 5 -4 10 3 6 8 10
11 10 2 0 4 -4 4 -10z m-2240 -391 c0 -6 -4 -7 -10 -4 -5 3 -10 11 -10 16 0 6
5 7 10 4 6 -3 10 -11 10 -16z m100 -24 c0 -8 -4 -15 -9 -15 -13 0 -22 16 -14
24 11 11 23 6 23 -9z m1395 -25 c3 -5 1 -10 -4 -10 -6 0 -11 5 -11 10 0 6 2
10 4 10 3 0 8 -4 11 -10z"/>
<path d="M5395 4610 c-3 -5 1 -10 10 -10 9 0 13 5 10 10 -3 6 -8 10 -10 10 -2
0 -7 -4 -10 -10z"/>
<path d="M5070 6271 c0 -68 11 -77 74 -65 39 7 39 24 0 24 -15 0 -24 6 -24 15
0 8 9 15 19 15 22 0 39 19 19 21 -7 1 -19 2 -27 3 -30 3 -23 26 8 26 17 0 31
5 31 10 0 6 -22 10 -50 10 l-50 0 0 -59z"/>
<path d="M4475 6310 c-3 -6 -4 -19 0 -29 3 -11 2 -22 -4 -25 -17 -11 -41 6
-41 30 0 16 -6 24 -17 24 -15 0 -18 -9 -16 -61 2 -71 8 -82 24 -45 16 34 47
34 59 0 16 -41 30 -17 30 52 0 49 -3 64 -14 64 -8 0 -18 -5 -21 -10z"/>
<path d="M4810 6255 c0 -51 3 -65 15 -65 8 0 15 7 15 15 0 8 9 19 20 25 24 13
26 30 5 30 -8 0 -15 9 -15 20 0 15 7 20 25 20 14 0 25 5 25 10 0 6 -20 10 -45
10 l-45 0 0 -65z"/>
<path d="M5375 6311 c-3 -5 5 -11 17 -13 20 -3 23 -10 26 -53 3 -51 17 -81 26
-54 2 8 7 35 11 62 4 32 11 47 21 47 8 0 12 5 9 10 -8 13 -102 13 -110 1z"/>
<path d="M2722 6287 c-29 -31 -28 -61 4 -86 35 -27 59 -26 89 4 32 31 32 58
-1 84 -35 27 -65 27 -92 -2z m68 -12 c7 -9 10 -25 6 -41 -5 -19 -12 -25 -29
-22 -25 3 -35 41 -17 64 16 18 24 18 40 -1z"/>
<path d="M3103 6263 c3 -32 12 -53 27 -65 48 -39 88 -15 97 60 5 48 4 52 -16
52 -18 0 -21 -6 -21 -44 0 -25 -5 -48 -10 -51 -20 -12 -40 17 -40 56 0 33 -3
39 -21 39 -20 0 -21 -4 -16 -47z"/>
<path d="M5660 6245 c0 -65 14 -87 26 -40 4 18 13 25 31 25 31 0 26 24 -6 28
-30 5 -21 26 12 30 44 5 30 22 -18 22 l-45 0 0 -65z"/>
<path d="M7165 6301 c-3 -5 5 -11 17 -13 20 -3 23 -10 26 -55 2 -38 7 -53 18
-53 10 0 14 13 14 51 0 42 3 52 20 56 11 3 20 9 20 14 0 12 -107 12 -115 0z"/>
<path d="M7552 6259 c6 -58 24 -79 68 -79 39 0 60 29 60 83 0 41 -3 47 -21 47
-11 0 -17 -4 -14 -10 4 -6 4 -29 0 -50 -5 -30 -11 -40 -26 -40 -18 0 -25 15
-31 70 -2 15 -10 26 -22 28 -17 4 -18 -1 -14 -49z"/>
<path d="M3450 6240 c0 -47 3 -60 15 -60 8 0 15 7 15 15 0 8 4 15 9 15 5 0 14
-7 21 -15 7 -8 19 -15 27 -15 12 0 13 3 4 13 -8 10 -7 22 1 44 16 42 -2 63
-53 63 l-39 0 0 -60z m68 22 c2 -7 -3 -12 -12 -12 -9 0 -16 7 -16 16 0 17 22
14 28 -4z"/>
<path d="M4081 6273 c-36 -44 -6 -113 49 -113 33 0 50 17 50 51 0 32 -23 53
-51 46 -13 -3 -19 -1 -16 6 2 7 19 11 36 10 45 -2 34 21 -11 25 -29 3 -40 -2
-57 -25z m45 -63 c8 0 14 -4 14 -10 0 -5 -7 -10 -15 -10 -8 0 -15 2 -15 4 0 2
-2 10 -3 18 -2 7 -2 10 0 6 3 -5 11 -8 19 -8z"/>
<path d="M5956 6278 c-20 -28 -20 -48 0 -76 19 -27 78 -31 88 -5 8 19 -8 40
-18 24 -4 -6 -16 -11 -27 -11 -17 0 -20 6 -17 33 3 29 6 32 36 32 43 0 35 19
-10 23 -28 2 -40 -2 -52 -20z"/>
<path d="M6242 6233 l3 -68 43 -3 c33 -2 42 0 42 12 0 11 -10 16 -30 16 -30 0
-30 1 -30 55 0 43 -3 55 -15 55 -13 0 -15 -12 -13 -67z"/>
<path d="M6562 6293 c-10 -4 -8 -9 7 -20 16 -11 21 -25 21 -59 0 -63 24 -54
28 10 3 38 6 46 18 42 11 -4 14 -1 12 12 -3 17 -58 27 -86 15z"/>
<path d="M8002 6245 c4 -65 19 -73 32 -16 7 32 13 40 29 38 13 -1 23 5 25 16
3 14 -4 17 -43 17 l-46 0 3 -55z"/>
<path d="M6840 6225 l0 -65 40 0 c46 0 56 24 15 34 -14 4 -25 11 -25 16 0 5
11 12 25 16 19 5 25 13 25 35 0 27 -3 29 -40 29 l-40 0 0 -65z"/>
<path d="M3782 6248 c-20 -20 -14 -30 16 -26 16 2 27 9 27 18 0 19 -27 24 -43
8z"/>
<path d="M3840 6246 c0 -7 7 -19 15 -26 19 -16 41 1 32 24 -8 20 -47 21 -47 2z"/>
<path d="M2858 6033 c7 -3 16 -2 19 1 4 3 -2 6 -13 5 -11 0 -14 -3 -6 -6z"/>
<path d="M3008 6033 c12 -2 32 -2 45 0 12 2 2 4 -23 4 -25 0 -35 -2 -22 -4z"/>
<path d="M3198 6033 c28 -2 76 -2 105 0 28 2 5 3 -53 3 -58 0 -81 -1 -52 -3z"/>
<path d="M3483 6033 c9 -2 23 -2 30 0 6 3 -1 5 -18 5 -16 0 -22 -2 -12 -5z"/>
<path d="M3588 6033 c7 -3 16 -2 19 1 4 3 -2 6 -13 5 -11 0 -14 -3 -6 -6z"/>
<path d="M3791 6023 c7 -10 15 -20 16 -22 2 -2 3 5 3 17 0 14 -6 22 -16 22
-14 0 -15 -3 -3 -17z"/>
<path d="M4868 6033 c7 -3 16 -2 19 1 4 3 -2 6 -13 5 -11 0 -14 -3 -6 -6z"/>
<path d="M5123 6033 c9 -2 25 -2 35 0 9 3 1 5 -18 5 -19 0 -27 -2 -17 -5z"/>
<path d="M5278 6033 c50 -2 134 -2 185 0 50 1 9 3 -93 3 -102 0 -143 -2 -92
-3z"/>
<path d="M5743 6033 c9 -2 23 -2 30 0 6 3 -1 5 -18 5 -16 0 -22 -2 -12 -5z"/>
<path d="M5948 6033 c6 -2 18 -2 25 0 6 3 1 5 -13 5 -14 0 -19 -2 -12 -5z"/>
<path d="M6010 6036 c0 -9 30 -14 35 -6 4 6 -3 10 -14 10 -12 0 -21 -2 -21 -4z"/>
<path d="M6798 6033 c6 -2 18 -2 25 0 6 3 1 5 -13 5 -14 0 -19 -2 -12 -5z"/>
<path d="M7108 6033 c7 -3 16 -2 19 1 4 3 -2 6 -13 5 -11 0 -14 -3 -6 -6z"/>
<path d="M7278 6033 c12 -2 32 -2 45 0 12 2 2 4 -23 4 -25 0 -35 -2 -22 -4z"/>
<path d="M6241 5951 c-26 -26 -27 -72 -2 -95 10 -9 35 -19 55 -23 32 -5 37 -3
46 23 10 25 8 31 -12 47 -23 19 -23 19 -28 -4 -3 -13 -14 -25 -24 -27 -14 -3
-17 2 -14 30 3 29 7 33 36 36 42 4 37 26 -6 30 -21 2 -37 -3 -51 -17z"/>
<path d="M4042 5893 l3 -58 38 -3 c41 -4 49 8 15 23 -18 8 -24 20 -26 53 -2
29 -8 42 -18 42 -12 0 -14 -12 -12 -57z"/>
<path d="M3170 5870 c0 -47 3 -60 15 -60 8 0 15 9 15 20 0 13 12 25 35 34 19
8 35 22 35 31 0 17 -38 35 -76 35 -23 0 -24 -3 -24 -60z"/>
<path d="M3450 5876 l0 -56 44 0 c50 0 67 15 68 59 1 40 -2 43 -62 49 l-50 5
0 -57z"/>
<path d="M7655 5919 c-8 -13 14 -97 27 -105 5 -3 18 2 28 11 12 11 20 13 25 6
3 -6 15 -11 25 -11 26 0 60 87 39 101 -9 6 -18 3 -27 -8 -9 -13 -15 -14 -24
-5 -17 17 -38 15 -38 -5 0 -14 -3 -13 -20 5 -24 25 -26 26 -35 11z"/>
<path d="M7994 5922 c-17 -11 -28 -99 -13 -108 7 -4 17 0 24 10 11 14 14 15
25 1 17 -20 46 -19 55 3 6 16 7 16 20 -2 22 -29 45 -13 45 32 0 50 -19 77 -49
67 -12 -4 -26 -16 -31 -28 -7 -17 -9 -18 -9 -5 -1 27 -44 46 -67 30z"/>
<path d="M2663 5912 c-33 -3 -49 -32 -19 -32 9 0 16 -12 18 -32 4 -38 22 -40
26 -3 2 14 8 25 13 25 11 0 12 37 2 42 -5 2 -23 2 -40 0z"/>
<path d="M4474 5906 c-3 -8 -4 -31 -2 -52 3 -43 33 -61 44 -27 4 10 18 28 32
40 36 30 24 53 -28 53 -26 0 -43 -5 -46 -14z"/>
<path d="M4767 5914 c-9 -9 12 -46 23 -39 5 3 10 -9 12 -27 2 -22 9 -34 21
-36 14 -3 17 4 17 32 0 30 4 36 21 36 14 0 19 5 17 18 -2 13 -15 18 -53 20
-28 2 -54 0 -58 -4z"/>
<path d="M5070 5880 c0 -52 28 -83 68 -74 37 9 52 31 52 76 0 33 -3 38 -23 38
-13 0 -28 -5 -34 -11 -8 -8 -13 -8 -17 0 -4 6 -16 11 -27 11 -16 0 -19 -7 -19
-40z m60 -32 c0 -5 -4 -8 -10 -8 -5 0 -10 10 -10 23 0 18 2 19 10 7 5 -8 10
-18 10 -22z"/>
<path d="M5366 5913 c-9 -9 -7 -76 3 -91 5 -9 25 -12 62 -10 l54 3 0 50 0 50
-56 2 c-31 1 -60 -1 -63 -4z"/>
<path d="M5680 5866 l0 -56 40 0 c29 0 40 4 40 15 0 8 -9 15 -19 15 -16 0 -20
8 -23 37 -2 27 -8 39 -20 41 -15 3 -18 -5 -18 -52z"/>
<path d="M5880 5909 c0 -20 45 -99 56 -99 10 0 64 88 64 104 0 3 -27 4 -60 4
-33 0 -60 -5 -60 -9z"/>
<path d="M6680 5865 c0 -41 4 -55 15 -55 7 0 18 6 22 14 4 7 18 18 31 25 15 8
22 21 22 41 0 29 -2 30 -45 30 l-45 0 0 -55z"/>
<path d="M6916 5904 c-22 -21 -20 -50 4 -74 22 -22 60 -26 78 -8 7 7 12 26 12
43 0 17 -5 36 -12 43 -17 17 -64 15 -82 -4z"/>
<path d="M7150 5910 c0 -6 11 -15 25 -20 14 -5 25 -16 24 -22 -4 -33 2 -58 15
-58 16 0 26 21 26 56 0 15 6 24 15 24 8 0 15 7 15 15 0 12 -13 15 -60 15 -34
0 -60 -4 -60 -10z"/>
<path d="M7410 5865 c0 -48 3 -56 18 -53 13 3 17 14 17 53 0 39 -4 50 -17 53
-15 3 -18 -5 -18 -53z"/>
<path d="M2860 5891 c0 -11 9 -22 20 -26 11 -4 20 -15 20 -26 0 -11 5 -17 10
-14 6 3 10 15 10 26 0 15 7 19 36 19 28 0 35 3 32 18 -3 14 -16 18 -66 20 -56
3 -62 1 -62 -17z"/>
<path d="M6031 5791 c-1 -24 2 -32 9 -25 7 7 7 19 1 35 -9 23 -10 22 -10 -10z"/>
<path d="M4534 5672 c-6 -4 -16 -28 -24 -54 -7 -27 -16 -48 -20 -48 -4 0 -12
21 -16 47 -7 34 -14 49 -28 51 -34 7 -37 -12 -13 -83 23 -67 48 -93 75 -76 13
8 46 82 56 122 6 28 -12 53 -30 41z"/>
<path d="M6316 5653 c-3 -3 -6 -22 -6 -42 0 -44 -12 -64 -32 -56 -17 7 -28 35
-28 73 0 13 -6 22 -15 22 -11 0 -15 -11 -15 -40 0 -72 70 -117 104 -68 25 36
18 137 -8 111z"/>
<path d="M6730 5645 c-9 -11 -16 -12 -26 -4 -7 6 -23 9 -35 7 -21 -3 -23 -7
-20 -63 3 -70 13 -85 42 -66 15 9 24 10 32 2 6 -6 21 -11 34 -11 18 0 23 6 25
28 2 32 2 80 -1 105 -1 21 -34 23 -51 2z m10 -58 c0 -5 -4 -5 -10 -2 -5 3 -10
14 -10 23 0 15 2 15 10 2 5 -8 10 -19 10 -23z"/>
<path d="M4030 5579 c0 -44 3 -60 13 -57 6 3 13 17 15 31 2 19 9 27 23 27 10
0 19 5 19 10 0 6 -8 10 -17 10 -17 1 -17 1 0 11 28 16 20 29 -18 29 l-35 0 0
-61z"/>
<path d="M4519 5348 c0 -7 -1 -31 -2 -53 -2 -33 -6 -41 -24 -43 -16 -2 -24 3
-28 20 -4 14 -5 28 -4 34 6 31 -3 44 -27 44 -26 0 -27 -1 -21 -56 3 -32 13
-64 23 -75 22 -25 85 -26 106 -1 21 24 33 109 17 128 -14 17 -39 18 -40 2z"/>
<path d="M4017 5344 c-17 -17 -5 -34 23 -34 l30 0 0 -61 c0 -52 2 -60 18 -57
13 2 18 16 22 63 4 53 8 60 28 63 13 2 21 9 19 15 -4 13 -128 22 -140 11z"/>
<path d="M6258 5342 c-34 -2 -48 -7 -48 -18 0 -8 10 -14 25 -14 23 0 24 -4 27
-62 3 -55 6 -63 22 -63 18 0 19 6 17 63 l-2 62 30 0 c20 0 31 5 31 14 0 16
-35 22 -102 18z"/>
<path d="M6660 5330 c0 -13 7 -20 20 -20 16 0 19 -8 22 -57 3 -50 6 -58 23
-58 17 0 20 8 23 53 3 45 7 54 27 62 16 6 23 15 19 25 -5 11 -22 15 -70 15
-57 0 -64 -2 -64 -20z"/>
<path d="M4410 5005 c0 -20 5 -25 25 -25 24 0 25 -3 25 -54 0 -45 3 -55 19
-59 28 -7 31 -1 31 60 0 50 1 53 25 53 20 0 25 5 25 25 0 24 -2 25 -75 25 -73
0 -75 -1 -75 -25z"/>
<path d="M6744 4977 c-8 -23 -34 -29 -50 -12 -9 8 -24 15 -35 15 -17 0 -19 -8
-19 -70 0 -56 3 -72 16 -77 10 -4 20 0 26 10 8 15 11 15 43 0 52 -25 67 -7 63
76 -2 53 -6 66 -21 69 -9 2 -20 -3 -23 -11z"/>
<path d="M6292 4958 c5 -15 48 -24 48 -10 0 10 -23 22 -42 22 -5 0 -8 -6 -6
-12z"/>
<path d="M4034 4949 c-8 -14 14 -29 44 -29 30 0 28 18 -4 30 -32 12 -31 12
-40 -1z"/>
<path d="M4050 4672 c-60 -19 -79 -94 -35 -137 44 -45 115 -25 115 30 0 27
-32 50 -56 41 -11 -4 -12 -10 -4 -25 14 -27 13 -31 -10 -31 -25 0 -36 40 -20
70 10 18 17 21 47 15 29 -5 34 -4 31 11 -3 19 -43 34 -68 26z"/>
<path d="M4415 4597 l0 -82 75 -6 c76 -5 103 2 83 22 -6 6 -8 29 -6 52 4 33 0
48 -17 70 -19 24 -28 27 -78 27 l-57 0 0 -83z m95 29 c20 -26 8 -61 -22 -64
-24 -3 -28 0 -28 22 0 52 24 72 50 42z"/>
<path d="M6348 4633 c-6 -47 4 -105 18 -110 12 -4 26 109 17 133 -10 27 -31
14 -35 -23z"/>
<path d="M6235 4639 c-4 -12 -2 -24 4 -28 6 -4 15 -27 19 -52 10 -56 26 -57
30 -1 3 34 7 42 23 42 11 0 17 5 14 10 -3 6 -14 10 -24 10 -10 0 -21 9 -24 20
-7 26 -34 26 -42 -1z"/>
<path d="M6683 4610 c-25 -10 -30 -39 -12 -57 7 -7 15 -29 18 -49 8 -49 33
-65 60 -40 12 11 21 29 21 41 0 11 7 30 15 41 19 25 19 60 -1 68 -22 9 -75 6
-101 -4z"/>
<path d="M8340 4566 c0 -2 7 -6 15 -10 8 -3 15 -1 15 4 0 6 -7 10 -15 10 -8 0
-15 -2 -15 -4z"/>
<path d="M4403 4255 c-5 -16 2 -83 10 -92 3 -2 32 -5 65 -6 69 -1 95 13 90 52
-4 33 -37 42 -45 12 -7 -29 -63 -30 -63 -2 0 33 -11 51 -31 51 -11 0 -22 -7
-26 -15z"/>
<path d="M6687 4253 c-28 -7 -18 -47 13 -52 37 -5 51 -37 30 -71 -8 -12 -11
-12 -28 3 -42 38 -72 7 -32 -33 28 -28 84 -27 104 2 22 31 21 111 -1 130 -21
18 -60 27 -86 21z"/>
<path d="M4004 4237 c-3 -8 -4 -49 -2 -93 l3 -79 68 -3 c62 -3 68 -1 65 15 -2
13 -14 19 -46 21 -38 3 -43 6 -40 25 2 18 9 21 35 19 34 -3 54 15 32 29 -8 5
-26 9 -41 9 -22 0 -28 5 -28 21 0 19 4 21 39 15 28 -4 40 -2 44 8 9 22 -2 26
-65 26 -40 0 -60 -4 -64 -13z"/>
<path d="M6220 4230 c0 -15 7 -20 25 -20 23 0 24 -4 27 -62 2 -50 6 -63 21
-66 15 -3 17 5 17 62 0 46 4 66 13 67 32 3 37 5 37 12 0 4 0 12 0 17 0 6 -30
10 -70 10 -63 0 -70 -2 -70 -20z"/>
<path d="M4433 3932 c2 -51 3 -53 27 -49 14 3 33 1 43 -5 27 -14 46 6 30 31
-8 13 -8 22 -1 29 5 5 7 19 4 30 -6 16 -15 20 -56 19 l-49 -1 2 -54z"/>
<path d="M6235 3880 c-4 -7 2 -14 14 -17 16 -4 21 -14 23 -56 4 -70 28 -76 28
-7 0 44 3 53 20 57 12 3 19 11 17 17 -5 15 -93 20 -102 6z"/>
<path d="M8135 3870 c-3 -5 1 -10 10 -10 9 0 13 5 10 10 -3 6 -8 10 -10 10 -2
0 -7 -4 -10 -10z"/>
<path d="M8065 3800 c-39 -39 -45 -50 -32 -55 9 -3 25 -7 34 -10 15 -5 15 -3
-2 15 -10 11 -14 20 -8 20 5 0 16 11 23 25 7 13 17 22 22 19 4 -3 8 1 8 10 0
8 6 17 13 19 6 3 7 6 2 6 -6 1 -33 -21 -60 -49z"/>
<path d="M3997 3763 c-16 -15 -6 -33 18 -33 24 0 25 -2 25 -65 0 -50 4 -67 15
-72 22 -8 24 -5 27 67 3 63 4 65 31 68 19 2 27 9 27 23 0 17 -7 19 -68 19 -38
0 -72 -3 -75 -7z"/>
<path d="M4437 3703 c-4 -4 -5 -21 -1 -39 3 -17 1 -41 -6 -53 -9 -17 -8 -22 5
-27 8 -4 22 -1 30 6 12 10 18 10 31 0 12 -11 18 -10 32 4 14 13 14 20 4 36
-10 16 -10 24 0 40 18 29 -4 50 -33 31 -15 -9 -24 -10 -32 -2 -13 13 -21 14
-30 4z"/>
<path d="M3997 3348 c-18 -11 6 -30 48 -37 l36 -6 -51 -52 c-28 -29 -48 -57
-45 -63 3 -5 40 -10 81 -10 67 0 74 2 74 20 0 16 -7 20 -35 20 -36 0 -48 21
-22 37 23 15 68 75 64 87 -4 12 -131 16 -150 4z"/>
<path d="M7298 2683 c7 -3 16 -2 19 1 4 3 -2 6 -13 5 -11 0 -14 -3 -6 -6z"/>
<path d="M7188 2613 c7 -3 16 -2 19 1 4 3 -2 6 -13 5 -11 0 -14 -3 -6 -6z"/>
<path d="M4730 2085 c-8 -9 -8 -15 -2 -15 12 0 26 19 19 26 -2 2 -10 -2 -17
-11z"/>
<path d="M5045 2050 c3 -5 8 -10 11 -10 2 0 4 5 4 10 0 6 -5 10 -11 10 -5 0
-7 -4 -4 -10z"/>
<path d="M6175 2020 c3 -5 8 -10 11 -10 2 0 4 5 4 10 0 6 -5 10 -11 10 -5 0
-7 -4 -4 -10z"/>
<path d="M5572 1990 c-14 -23 -15 -30 -3 -30 8 0 24 41 18 47 -2 1 -8 -7 -15
-17z"/>
<path d="M5620 1995 c0 -8 5 -15 10 -15 6 0 10 7 10 15 0 8 -4 15 -10 15 -5 0
-10 -7 -10 -15z"/>
<path d="M5518 1983 c7 -3 16 -2 19 1 4 3 -2 6 -13 5 -11 0 -14 -3 -6 -6z"/>
<path d="M5655 1979 c-4 -6 -4 -13 -1 -16 3 -4 6 -1 6 6 0 7 5 9 12 5 7 -4 8
-3 4 4 -9 15 -13 15 -21 1z"/>
<path d="M6035 1979 c-4 -6 -5 -12 -2 -15 2 -3 7 2 10 11 7 17 1 20 -8 4z"/>
</g>
</svg>
